<svg xmlns="http://www.w3.org/2000/svg" viewBox="0 0 100.00 100.00" width="100.00" height="100.00" role="img" aria-label="Škafetin"><title>Škafetin</title><rect width="100" height="100" rx="18" fill="#123A63"/><g transform="translate(6,7) scale(0.88)"><path d="M20,30 H80 L90,53 H10 Z" fill="#081B2E"/><g transform="translate(23.00,-2.48) scale(0.54)"><path d="M18,12 H82 V49 C82,71 68,84 50,93 C32,84 18,71 18,49 Z" fill="#E8BE63" stroke="#E8BE63" stroke-width="3"/><rect x="25.5" y="29" width="22" height="22" rx="5" fill="#123A63"/><rect x="52.5" y="29" width="22" height="22" rx="5" fill="#123A63"/><rect x="39" y="55" width="22" height="22" rx="5" fill="#123A63"/></g><path d="M10,53 H90 V84 a6,6 0 0 1 -6,6 H16 a6,6 0 0 1 -6,-6 Z" fill="#F2F5F8"/><rect x="36" y="66" width="28" height="7" rx="3.5" fill="#E8BE63"/></g></svg>